<svg viewBox="0 0 56.693 56.693" xml:space="preserve" xmlns="http://www.w3.org/2000/svg"><circle cx="24.479" cy="18.758" r=".97" fill="#ffffff" class="fill-000000"></circle><path d="M28.348 5.158c-13.6 0-24.625 11.023-24.625 24.623 0 13.6 11.025 24.625 24.625 24.625 13.598 0 24.623-11.025 24.623-24.625S41.945 5.158 28.348 5.158zM18.014 33.841a1.94 1.94 0 0 1-3.878 0v-8.295a1.94 1.94 0 0 1 3.878 0v8.295zm19.392-8.621v12.609a2.048 2.048 0 0 1-2.047 2.047h-1.477c.049.172.076.352.076.537v4.095a1.939 1.939 0 1 1-3.878 0v-4.095c0-.186.027-.365.078-.537h-3.602c.049.172.076.352.076.537v4.095a1.94 1.94 0 0 1-3.878 0v-4.095c0-.186.027-.365.078-.537h-1.479a2.048 2.048 0 0 1-2.046-2.047V23.607h18.1v1.613zm-18.099-2.907c0-2.771 1.855-5.191 4.599-6.468l-.363-.547-.361-.539-.805-1.209a.323.323 0 1 1 .539-.358l.865 1.297.361.545.369.553a10.636 10.636 0 0 1 3.844-.707c1.375 0 2.68.254 3.846.707l.369-.553.363-.545.865-1.297a.322.322 0 1 1 .537.358l-.805 1.209-.359.539-.365.547c2.744 1.276 4.6 3.697 4.6 6.468H19.307zm23.271 11.528a1.94 1.94 0 0 1-3.879 0v-8.295a1.94 1.94 0 0 1 3.879 0v8.295z" fill="#ffffff" class="fill-000000"></path><circle cx="32.236" cy="18.758" r=".97" fill="#ffffff" class="fill-000000"></circle></svg>